# xmcd CD database file
# Copyright (C) 1993-1996 Ti Kan
#
# Track frame offsets:
# 150
# 12137
# 23602
# 32602
# 42040
# 53222
# 62682
# 72197
# 80755
# 91832
# 102577
# 111822
# 123137
# 134880
# 146227
# 156410
# 165890
# 177115
# 187322
# 198237
# 207350
# 217272
# 229430
# 240147
# 250535
# 260922
# 272447
# 283985
#
# Disc length: 3934 seconds
#
# Revision: 0
# Processed by: cddbd v1.5.2PL0 Copyright (c) Steve Scherf et al.
# Submitted via: inCDius 1.1b5
#
DISCID=9b0f5c1c
DTITLE=Porter Wagoner - The Thin Man From The West Plains Disc3
DYEAR=1993
DGENRE=Country
TTITLE0=I Thought I Heard You Call My Name
TTITLE1=Turn It Over In Your Mind
TTITLE2=Pay Day
TTITLE3=Big Wheels
TTITLE4=A Wound Time Can't Erase
TTITLE5=As Long As I'm Dreaming
TTITLE6=Your Love
TTITLE7=Doll Face
TTITLE8=I Don't Want This Memory
TTITLE9=Burning Bridges
TTITLE10=Five O' Clock In The Morning
TTITLE11=Heaven's Just A Prayer Away
TTITLE12=Tomorrow We'll Retire
TTITLE13=Just Before Dawn
TTITLE14=Dear Lonesome
TTITLE15=Tell Her Lies And Feed Her Candy
TTITLE16=Haven't You Heard
TTITLE17=Don't Ever Leave Me
TTITLE18=Who'll Buy The Wine
TTITLE19=Me And Fred And Joe And Bill 
TTITLE20=Out Of Sight Out Of Mind
TTITLE21=I Thought Of God
TTITLE22=I'm Gonna Sing
TTITLE23=Our Song Of Love
TTITLE24=The Battle Of Little Big Horn
TTITLE25=Luannie Brown
TTITLE26=Your Kind Of People
TTITLE27=The Girl Who Didn't Need Love
EXTD=
EXTT0=
EXTT1=
EXTT2=
EXTT3=
EXTT4=
EXTT5=
EXTT6=
EXTT7=
EXTT8=
EXTT9=
EXTT10=
EXTT11=
EXTT12=
EXTT13=
EXTT14=
EXTT15=
EXTT16=
EXTT17=
EXTT18=
EXTT19=
EXTT20=
EXTT21=
EXTT22=
EXTT23=
EXTT24=
EXTT25=
EXTT26=
EXTT27=
PLAYORDER=
